<?xml version="1.0" standalone="no"?>
<!DOCTYPE svg PUBLIC "-//W3C//DTD SVG 20010904//EN"
 "http://www.w3.org/TR/2001/REC-SVG-20010904/DTD/svg10.dtd">
<svg version="1.0" xmlns="http://www.w3.org/2000/svg"
 width="512.000000pt" height="512.000000pt" viewBox="0 0 512.000000 512.000000"
 preserveAspectRatio="xMidYMid meet">
<metadata>
Created by potrace 1.14, written by Peter Selinger 2001-2017
</metadata>
<g transform="translate(0.000000,512.000000) scale(0.100000,-0.100000)"
fill="#000000" stroke="none">
<path d="M0 5005 l0 -115 35 -15 c20 -8 55 -30 78 -48 110 -89 188 -89 269 1
53 58 56 81 24 173 -14 43 -26 88 -26 99 0 19 -6 20 -190 20 l-190 0 0 -115z"/>
<path d="M490 5095 c0 -34 27 -85 45 -85 19 0 43 37 51 78 l7 32 -52 0 c-48 0
-51 -1 -51 -25z"/>
<path d="M3564 5088 c4 -18 13 -39 21 -48 13 -13 17 -13 30 0 8 9 17 30 21 48
l7 32 -43 0 -42 0 6 -32z"/>
<path d="M4270 5081 c0 -45 32 -97 76 -123 20 -11 67 -21 135 -27 111 -9 166
-29 204 -71 30 -33 92 -66 160 -86 48 -13 70 -27 111 -69 33 -35 64 -57 90
-64 80 -22 74 -40 74 234 l0 245 -425 0 -425 0 0 -39z"/>
<path d="M3418 4698 c-26 -20 -58 -81 -58 -108 0 -37 25 -67 80 -95 42 -22 51
-31 69 -80 12 -31 21 -59 21 -62 0 -3 15 -29 33 -57 30 -47 32 -58 38 -164 7
-146 9 -148 144 -162 131 -13 154 -22 204 -75 50 -54 76 -68 161 -90 97 -24
113 -32 157 -80 32 -33 60 -50 119 -72 51 -18 93 -43 125 -71 46 -42 119 -81
150 -82 40 0 122 -34 159 -65 23 -19 52 -35 65 -35 13 0 42 16 65 35 42 35 93
55 143 55 l27 0 0 175 0 175 -26 0 c-40 0 -304 50 -326 61 -10 5 -41 30 -69
55 -61 54 -79 62 -186 79 -100 17 -110 22 -157 80 -45 54 -70 68 -162 91 -58
15 -78 26 -124 69 -61 58 -76 67 -146 91 -27 9 -69 33 -93 53 -24 20 -85 61
-135 91 -71 43 -98 66 -123 105 -56 85 -113 116 -155 83z"/>
<path d="M224 3685 c-9 -48 3 -102 24 -110 24 -9 42 21 36 59 -15 86 -48 114
-60 51z"/>
<path d="M3703 3510 c-26 -11 -53 -59 -53 -95 0 -43 32 -65 98 -65 79 0 86 7
80 71 -8 80 -58 116 -125 89z"/>
<path d="M340 3475 c-15 -18 -27 -179 -35 -475 -3 -112 -9 -186 -16 -188 -22
-8 -71 -56 -86 -85 -8 -17 -28 -82 -43 -143 -35 -142 -60 -187 -117 -215 l-43
-21 0 -314 0 -314 23 0 c43 0 100 22 123 47 14 15 31 50 40 80 22 77 52 108
132 134 37 12 110 39 162 61 81 33 103 48 150 98 30 33 68 64 83 70 44 16 271
13 312 -4 63 -27 59 -87 -10 -148 -58 -51 -70 -98 -70 -273 1 -167 21 -269 67
-341 17 -27 48 -86 69 -131 47 -103 104 -162 185 -193 56 -21 67 -22 244 -15
276 11 302 8 313 -35 3 -11 -9 -50 -29 -91 -19 -39 -34 -84 -34 -101 0 -43 28
-95 67 -126 39 -32 41 -42 12 -68 -44 -39 -66 -147 -36 -173 8 -6 38 -15 67
-21 58 -11 84 -29 107 -74 9 -16 41 -55 72 -85 31 -31 65 -72 76 -91 11 -19
31 -40 45 -47 21 -10 29 -9 55 7 41 26 42 54 1 139 -44 92 -46 94 -128 142
-59 35 -72 48 -98 99 -33 65 -86 131 -102 127 -6 -1 -13 4 -15 11 -3 6 0 12 5
12 22 0 53 62 63 122 6 35 8 91 4 126 -6 54 -12 69 -46 108 -21 25 -39 53 -40
62 0 9 -2 39 -5 67 -4 62 11 87 64 103 59 18 74 15 128 -23 66 -47 97 -45 123
10 97 206 100 269 27 472 -33 93 -36 202 -6 288 11 32 20 68 20 80 0 36 -35
70 -117 113 -114 59 -134 84 -143 175 -8 87 -45 163 -99 208 -35 29 -84 38
-96 19 -3 -6 -11 -54 -16 -108 -12 -112 -25 -146 -58 -150 -24 -4 -179 24
-218 39 -55 21 -80 82 -50 123 8 11 46 25 97 37 53 13 104 32 135 52 27 18 59
38 70 43 13 7 21 23 23 48 4 45 -50 161 -102 222 -20 23 -50 77 -67 120 -37
95 -60 124 -84 104 -25 -21 -33 -41 -56 -146 -20 -95 -44 -154 -62 -154 -17 0
-35 28 -77 120 -32 71 -44 111 -47 160 -8 109 -24 132 -103 144 -52 8 -105 -8
-146 -44 -20 -17 -65 -45 -101 -62 -76 -37 -95 -59 -123 -142 -26 -80 -45
-106 -76 -106 -62 0 -85 37 -144 225 -38 124 -97 250 -129 279 -27 25 -75 31
-91 11z m55 -719 c0 -38 -18 -44 -33 -11 -17 37 -15 47 11 43 17 -2 22 -10 22
-32z m679 -120 c8 -101 8 -117 -7 -140 -22 -33 -58 -42 -108 -27 -55 17 -82
60 -76 125 4 46 9 54 76 119 67 65 73 69 88 54 12 -12 20 -48 27 -131z m-664
-75 c16 -60 -17 -120 -49 -88 -25 25 -2 127 29 127 5 0 14 -18 20 -39z m1066
-392 c11 -4 43 -26 69 -49 27 -23 81 -57 121 -75 89 -41 109 -70 102 -153 -6
-64 -25 -86 -91 -102 -42 -10 -188 -51 -259 -73 -42 -12 -54 -8 -163 61 -69
44 -95 85 -95 153 0 55 11 71 73 107 29 17 62 48 85 82 48 68 79 78 158 49z
m294 -735 c54 -32 78 -104 41 -124 -29 -15 -105 -12 -151 6 -49 20 -64 44 -49
77 24 52 104 73 159 41z"/>
<path d="M3873 3294 c-9 -24 10 -49 38 -49 27 0 37 28 19 50 -17 20 -49 19
-57 -1z"/>
<path d="M3551 3234 c-25 -31 -36 -100 -22 -136 7 -18 28 -36 60 -52 44 -23
52 -32 71 -83 27 -74 41 -88 100 -108 59 -19 61 -22 95 -108 44 -110 98 -133
125 -51 22 64 8 113 -45 161 -27 25 -59 68 -77 105 -23 49 -58 90 -150 180
-65 65 -123 118 -128 118 -5 0 -18 -12 -29 -26z"/>
<path d="M3094 2995 c-61 -61 4 -148 74 -99 40 27 21 104 -29 117 -14 4 -29
-2 -45 -18z"/>
<path d="M3250 2752 c-42 -20 -57 -54 -65 -142 -9 -87 -24 -119 -68 -140 -36
-17 -42 -39 -32 -105 8 -57 26 -80 56 -72 27 7 54 54 64 110 3 21 13 41 21 44
8 3 66 -20 129 -52 99 -51 115 -62 130 -95 17 -38 40 -54 116 -84 26 -10 49
-32 78 -75 44 -64 86 -93 153 -105 51 -9 78 17 78 77 0 46 -13 69 -79 143 -31
34 -51 70 -65 114 -19 57 -27 68 -76 103 -135 95 -122 90 -241 96 -44 2 -68
30 -85 100 -8 36 -19 70 -25 77 -16 19 -56 22 -89 6z"/>
<path d="M2706 2440 c-47 -9 -82 -46 -92 -95 -8 -42 11 -123 61 -265 42 -119
79 -183 137 -235 50 -46 95 -65 164 -70 80 -6 94 9 105 120 9 85 8 93 -22 184
-38 113 -41 118 -94 141 -57 25 -73 47 -93 131 -17 69 -20 75 -53 86 -38 13
-57 14 -113 3z"/>
<path d="M4054 1835 c-11 -44 38 -77 51 -35 9 29 -4 60 -25 60 -13 0 -22 -9
-26 -25z"/>
<path d="M4528 1739 c-23 -13 -24 -67 -2 -76 37 -14 70 41 44 73 -14 16 -19
17 -42 3z"/>
<path d="M3122 1718 c-17 -17 -15 -49 4 -76 21 -30 28 -28 49 12 19 34 19 36
0 55 -21 24 -36 26 -53 9z"/>
<path d="M3412 1675 c-35 -25 -41 -50 -52 -228 -5 -89 -13 -180 -16 -202 -5
-31 -2 -46 12 -63 24 -28 83 -39 124 -22 42 17 148 145 162 195 13 48 -1 144
-33 229 -17 46 -28 60 -59 76 -57 29 -110 35 -138 15z"/>
<path d="M4207 1374 c-16 -16 -6 -45 19 -55 20 -7 32 -6 51 6 37 24 26 49 -22
53 -23 2 -44 0 -48 -4z"/>
<path d="M2631 1131 c-13 -13 -21 -34 -21 -57 0 -30 10 -46 70 -109 39 -41 75
-86 80 -100 14 -36 13 -409 -1 -498 -6 -40 -26 -110 -44 -157 -20 -51 -34
-110 -37 -147 l-4 -63 404 0 405 0 -7 108 c-8 132 -27 204 -63 231 -34 28 -44
27 -79 -10 -32 -34 -123 -79 -160 -79 -36 0 -60 48 -73 143 -32 228 -77 360
-138 401 -19 13 -41 34 -50 45 -14 21 -21 121 -8 141 3 5 1 27 -5 49 -18 68
-64 94 -209 117 -31 5 -43 2 -60 -15z"/>
<path d="M1637 435 c-26 -27 -42 -95 -32 -136 3 -13 -1 -76 -10 -139 -23 -176
-30 -160 73 -160 l88 0 -3 216 c-2 145 -6 221 -14 230 -19 23 -73 17 -102 -11z"/>
<path d="M5083 143 c-31 -6 -70 -48 -77 -84 -11 -58 -11 -59 54 -59 l60 0 0
75 c0 41 -3 74 -7 74 -5 -1 -18 -4 -30 -6z"/>
</g>
</svg>
